<svg t="1740810949838" class="icon" viewBox="0 0 1126 1024" version="1.1"
  xmlns="http://www.w3.org/2000/svg" p-id="12023" width="128" height="128">
  <path
    d="M270.881398 0.066727a67.362881 67.362881 0 0 1 70.222626 64.026513v895.815109a67.362881 67.362881 0 0 1-70.222626 64.026512H70.222626A67.362881 67.362881 0 0 1 0 959.908349V64.09324A67.362881 67.362881 0 0 1 70.222626 0.066727z m785.079429 0a67.362881 67.362881 0 0 1 70.222627 64.026513v895.815109a67.362881 67.362881 0 0 1-70.222627 64.026512h-200.658771a67.362881 67.362881 0 0 1-70.222626-64.026512V64.09324A67.362881 67.362881 0 0 1 855.302056 0.066727zM664.652392 0.066727a67.362881 67.362881 0 0 1 70.222626 64.026513v895.815109a67.362881 67.362881 0 0 1-70.222626 64.026512H463.99362a67.362881 67.362881 0 0 1-70.222626-64.026512V64.09324A67.362881 67.362881 0 0 1 463.99362 0.066727z m398.934422 64.026513h-217.976116v895.815109h218.055553z m-391.308436 0H454.302262v895.815109h218.055554z"
    fill="#e89abe" p-id="12024"></path>
  <path
    d="M564.323006 460.485666a45.120421 45.120421 0 0 1 51.078222 51.078223v299.478847a51.078223 51.078223 0 0 1-102.156445 0v-299.478847a45.120421 45.120421 0 0 1 51.078223-51.078223z"
    fill="#e89abe" fill-opacity="0.36" p-id="12025"></path>
  <path
    d="M956.664127 460.485666a45.120421 45.120421 0 0 1 51.078223 51.078223v299.478847a51.078223 51.078223 0 0 1-102.156445 0v-299.478847a45.120421 45.120421 0 0 1 51.078222-51.078223z"
    fill="#e89abe" fill-opacity="0.36" p-id="12026"></path>
</svg>