<?xml version="1.0" standalone="no"?><!DOCTYPE svg PUBLIC "-//W3C//DTD SVG 1.1//EN" "http://www.w3.org/Graphics/SVG/1.1/DTD/svg11.dtd"><svg t="1741068182549" class="icon" viewBox="0 0 1024 1024" version="1.1" xmlns="http://www.w3.org/2000/svg" p-id="6454" xmlns:xlink="http://www.w3.org/1999/xlink" width="128" height="128"><path d="M224 887.466667a288 32 0 1 0 576 0 288 32 0 1 0-576 0Z" fill="#45413C" p-id="6455"></path><path d="M381.866667 458.666667s-168.533333 12.8-241.066667 234.666666c-8.533333 25.6 17.066667 46.933333 36.266667 32 27.733333-21.333333 55.466667-32 83.2-32 6.4 55.466667 23.466667 106.666667 46.933333 153.6 10.666667 21.333333 38.4 17.066667 44.8-6.4C384 676.266667 512 539.733333 512 539.733333l-130.133333-81.066666z" fill="#FF6196" p-id="6456"></path><path d="M381.866667 458.666667s-34.133333 2.133333-78.933334 25.6c29.866667 57.6 89.6 100.266667 162.133334 113.066666 27.733333-36.266667 46.933333-59.733333 46.933333-59.733333l-130.133333-78.933333z" fill="#E0366F" p-id="6457"></path><path d="M644.266667 458.666667s168.533333 12.8 241.066666 234.666666c8.533333 25.6-17.066667 46.933333-36.266666 32-27.733333-21.333333-55.466667-32-83.2-32-6.4 55.466667-23.466667 106.666667-46.933334 153.6-10.666667 21.333333-38.4 17.066667-44.8-6.4-32-164.266667-162.133333-300.8-162.133333-300.8l132.266667-81.066666z" fill="#FF6196" p-id="6458"></path><path d="M644.266667 458.666667s34.133333 2.133333 78.933333 25.6c-29.866667 57.6-89.6 100.266667-162.133333 113.066666-27.733333-34.133333-49.066667-57.6-49.066667-57.6l132.266667-81.066666z" fill="#E0366F" p-id="6459"></path><path d="M996.266667 358.4c-70.4 140.8-413.866667 100.266667-413.866667 100.266667l-40.533333-91.733334 413.866666-211.2 40.533334 202.666667z" fill="#E0366F" p-id="6460"></path><path d="M544 369.066667s187.733333-313.6 371.2-256c21.333333 6.4 38.4 23.466667 42.666667 44.8l40.533333 202.666666c-151.466667-110.933333-413.866667 100.266667-413.866667 100.266667l-40.533333-91.733333z" fill="#FF6196" p-id="6461"></path><path d="M934.4 202.666667C778.666667 153.6 618.666667 373.333333 576 441.6l-32-72.533333s187.733333-313.6 371.2-256c21.333333 6.4 38.4 23.466667 42.666667 44.8l14.933333 78.933333c-8.533333-17.066667-23.466667-29.866667-38.4-34.133333z" fill="#FF87AF" p-id="6462"></path><path d="M27.733333 358.4c70.4 140.8 413.866667 100.266667 413.866667 100.266667l40.533333-91.733334L68.266667 157.866667l-40.533334 200.533333z" fill="#E0366F" p-id="6463"></path><path d="M482.133333 369.066667S294.4 55.466667 110.933333 113.066667c-21.333333 6.4-38.4 23.466667-42.666666 44.8l-40.533334 202.666666c151.466667-110.933333 413.866667 100.266667 413.866667 100.266667l40.533333-91.733333z" fill="#FF6196" p-id="6464"></path><path d="M91.733333 202.666667c155.733333-49.066667 313.6 172.8 358.4 238.933333l32-72.533333S294.4 55.466667 110.933333 113.066667c-21.333333 6.4-38.4 23.466667-42.666666 44.8L53.333333 234.666667c8.533333-14.933333 23.466667-27.733333 38.4-32z" fill="#FF87AF" p-id="6465"></path><path d="M341.333333 398.933333a170.666667 151.466667 0 1 0 341.333334 0 170.666667 151.466667 0 1 0-341.333334 0Z" fill="#FF6196" p-id="6466"></path><path d="M512 317.866667c66.133333 0 123.733333 17.066667 166.4 46.933333-17.066667-66.133333-85.333333-117.333333-166.4-117.333333s-149.333333 49.066667-166.4 117.333333c42.666667-27.733333 102.4-46.933333 166.4-46.933333z" fill="#FF87AF" p-id="6467"></path></svg>